<svg version="1.2" xmlns="http://www.w3.org/2000/svg" viewBox="0 0 400 400" width="400" height="400"><style>.a{fill:#994ddc}.b{fill:#ae5ce5}.c{fill:#c36bee}.d{fill:#d77af6}.e{fill:#e286fb}</style><path class="a" d="m52.2 10h337.8v106.7q0 53.3-42.2 53.3h-295.6q-42.2 0-42.2-53.3v-53.4q0-53.3 42.2-53.3z"/><path class="b" d="m52.2 73.3h337.8v107.1q0 53.6-42.2 53.6h-295.6q-42.2 0-42.2-53.6v-53.5q0-53.6 42.2-53.6z"/><path class="c" d="m52.2 136.7h337.8v106.9q0 53.4-42.2 53.4h-295.6q-42.2 0-42.2-53.4v-53.5q0-53.4 42.2-53.4z"/><path class="d" d="m52.2 200h337.8v106.7q0 53.3-42.2 53.3h-295.6q-42.2 0-42.2-53.3v-53.4q0-53.3 42.2-53.3z"/><path class="e" d="m52.2 263.3h337.8v84.5q0 42.2-42.2 42.2h-295.6q-42.2 0-42.2-42.2v-42.2q0-42.3 42.2-42.3z"/></svg>