<svg width="110" height="110" viewBox="0 0 110 110" xmlns="http://www.w3.org/2000/svg">
  <path d="M0 2C0 .895.895 0 2 0H65c8.284 0 15 6.716 15 15V65c0 8.284-6.716 15-15 15H2C.895 80 0 79.105 0 78V2Z" fill="url(#g1)"/>
  <path d="M15 17c0-1.105.895-2 2-2H80c8.284 0 15 6.716 15 15V80c0 8.284-6.716 15-15 15H17c-1.105 0-2-.895-2-2V17Z" fill="url(#g2)"/>
  <path d="M30 32c0-1.105.895-2 2-2H95c8.284 0 15 6.716 15 15V95c0 8.284-6.716 15-15 15H32c-1.105 0-2-.895-2-2V32Z" fill="url(#g3)"/>
  <defs>
    <linearGradient id="g1" x1="55" y1="0" x2="55" y2="80" gradientUnits="userSpaceOnUse">
      <stop stop-color="#422586"/><stop offset="1" stop-color="#8C63EA"/>
    </linearGradient>
    <linearGradient id="g2" x1="55" y1="15" x2="55" y2="95" gradientUnits="userSpaceOnUse">
      <stop stop-color="#754FCE"/><stop offset="1" stop-color="#BEA0F3"/>
    </linearGradient>
    <linearGradient id="g3" x1="55" y1="30" x2="55" y2="110" gradientUnits="userSpaceOnUse">
      <stop stop-color="#A67BF0"/><stop offset="1" stop-color="#E3D3FF"/>
    </linearGradient>
  </defs>
</svg>